HIERARCHY
ROOT Hips
{
	OFFSET 0.000000 0.000000 0.000000 
	CHANNELS 6 Xposition Yposition Zposition Zrotation Yrotation Xrotation
	JOINT LeftUpLeg
	{
		OFFSET 1.363060 -1.794630 0.839290 
		CHANNELS 3 Zrotation Yrotation Xrotation
		JOINT LeftLeg
		{
			OFFSET 2.448110 -6.726130 0.000000 
			CHANNELS 3 Zrotation Yrotation Xrotation
			JOINT LeftFoot
			{
				OFFSET 2.562200 -7.039590 0.000000 
				CHANNELS 3 Zrotation Yrotation Xrotation
				JOINT LeftToeBase
				{
					OFFSET 0.157640 -0.433110 2.322550 
					CHANNELS 3 Zrotation Yrotation Xrotation
					End Site
					{
						OFFSET 0.000000 0.000000 0.000000 
					}
				}
			}
		}
	}
	JOINT RightUpLeg
	{
		OFFSET -1.305520 -1.794630 0.839290 
		CHANNELS 3 Zrotation Yrotation Xrotation
		JOINT RightLeg
		{
			OFFSET -2.542530 -6.985550 0.000000 
			CHANNELS 3 Zrotation Yrotation Xrotation
			JOINT RightFoot
			{
				OFFSET -2.568260 -7.056230 0.000000 
				CHANNELS 3 Zrotation Yrotation Xrotation
				JOINT RightToeBase
				{
					OFFSET -0.164730 -0.452590 2.363150 
					CHANNELS 3 Zrotation Yrotation Xrotation
					End Site
					{
						OFFSET 0.000000 0.000000 0.000000 
					}
				}
			}
		}
	}
	JOINT Spine
	{
		OFFSET 0.028270 2.035590 -0.193380 
		CHANNELS 3 Zrotation Yrotation Xrotation
		JOINT Spine1
		{
			OFFSET 0.056720 2.048850 -0.042750 
			CHANNELS 3 Zrotation Yrotation Xrotation
			JOINT Neck1
			{
				OFFSET -0.054170 1.746240 0.172020 
				CHANNELS 3 Zrotation Yrotation Xrotation
				JOINT Head
				{
					OFFSET 0.104070 1.761360 -0.123970 
					CHANNELS 3 Zrotation Yrotation Xrotation
					End Site
					{
						OFFSET 0.000000 0.000000 0.000000 
					}
				}
			}
			JOINT LeftArm
			{
				OFFSET 3.362410 1.200890 -0.311210 
				CHANNELS 3 Zrotation Yrotation Xrotation
				JOINT LeftForeArm
				{
					OFFSET 4.983000 -0.000000 -0.000000 
					CHANNELS 3 Zrotation Yrotation Xrotation
					JOINT LeftHand
					{
						OFFSET 3.483560 -0.000000 -0.000000 
						CHANNELS 3 Zrotation Yrotation Xrotation
						JOINT LeftHandIndex1
						{
							OFFSET 0.715260 -0.000000 -0.000000 
							CHANNELS 3 Zrotation Yrotation Xrotation
							End Site
							{
								OFFSET 0.000000 0.000000 0.000000 
							}
						}
					}
				}
			}
			JOINT RightArm
			{
				OFFSET -3.136600 1.374050 -0.404650 
				CHANNELS 3 Zrotation Yrotation Xrotation
				JOINT RightForeArm
				{
					OFFSET -5.241900 -0.000000 -0.000000 
					CHANNELS 3 Zrotation Yrotation Xrotation
					JOINT RightHand
					{
						OFFSET -3.444170 -0.000000 -0.000000 
						CHANNELS 3 Zrotation Yrotation Xrotation
						JOINT RightHandIndex1
						{
							OFFSET -0.622530 -0.000000 -0.000000 
							CHANNELS 3 Zrotation Yrotation Xrotation
							End Site
							{
								OFFSET 0.000000 0.000000 0.000000 
							}
						}
					}
				}
			}
		}
	}
}
MOTION
Frames: 12
Frame Time: 0.041667
6.208408 20.590686 0.878751 177.611743 -88.482829 -141.966662 -87.231537 -53.557536 -16.233162 19.823772 5.484806 53.376468 7.930488 -3.763662 -65.659414 0.103600 2.075200 5.713600 87.822489 61.700850 -18.946874 -21.538770 -6.106163 55.070309 -9.697784 -3.937172 -61.854621 -0.542000 4.716900 -13.102900 -96.876184 -13.875268 -8.889880 26.818938 -3.894470 16.114810 83.298477 -19.527753 12.628746 4.646000 -4.939200 3.627500 -36.724426 -74.500653 -5.687652 146.843381 -45.429695 -81.559777 1.420212 6.063168 11.683263 -7.125000 0.000000 0.000000 77.474894 26.027844 -0.554761 -166.504199 29.462336 -105.952057 -0.747090 0.158612 0.393886 7.125000 0.000000 0.000000 
6.209989 20.590009 0.880182 177.431273 -87.901527 -139.824378 -87.083567 -53.648307 -17.057186 19.888681 5.307909 53.092217 7.945662 -3.944429 -65.610531 0.091200 1.947800 5.361500 86.915937 62.103150 -20.247777 -21.575444 -5.975544 55.205978 -9.715357 -3.993535 -61.812164 -0.540000 4.708300 -13.078500 -93.789009 -20.465765 -18.295625 25.677511 -5.439750 20.173189 81.771496 -19.895006 13.710575 4.582400 -4.944900 3.617000 -37.405280 -73.764578 -5.640341 146.947991 -45.442330 -81.513879 1.451794 6.058821 11.715787 -7.125000 0.000000 0.000000 77.585533 25.045036 -0.579872 -166.209510 29.320403 -105.909857 -0.726684 0.177139 0.464348 7.125000 0.000000 0.000000 
6.209386 20.590536 0.881537 175.895032 -87.235385 -137.707797 -87.039661 -53.698523 -17.372646 19.881089 5.315724 53.074879 7.983085 -3.908055 -65.602395 0.106600 2.104900 5.795700 86.613505 62.236184 -20.593549 -21.614293 -5.884525 55.198885 -9.688546 -3.934685 -61.842185 -0.530700 4.668000 -12.964000 -92.807191 -22.277537 -21.248718 25.606193 -5.850575 21.508486 80.268327 -19.227562 13.222706 4.500500 -4.955300 3.553600 -37.277622 -73.907280 -6.087929 146.925754 -45.307118 -81.509987 1.478684 6.084991 11.653484 -7.125000 0.000000 0.000000 77.721308 24.691187 -0.628602 -166.020804 29.220254 -105.915087 -0.740664 0.195723 0.477735 7.125000 0.000000 0.000000 
6.209612 20.590987 0.884248 175.347704 -87.211915 -137.863513 -87.248562 -53.534131 -16.973138 19.857714 5.368042 53.090607 7.977399 -3.903379 -65.615828 0.142400 2.432000 6.701200 86.680678 62.277529 -20.348500 -21.592847 -5.952218 55.238021 -9.639162 -3.916867 -61.983851 -0.486600 4.472900 -12.411100 -94.827011 -19.646743 -17.170056 26.437862 -5.207300 19.894794 80.152966 -18.345008 11.957083 4.453600 -4.972700 3.502600 -36.077667 -74.680416 -6.939536 146.719726 -45.231385 -81.486100 1.492343 6.138342 11.519967 -7.125000 0.000000 0.000000 77.726012 25.068706 -0.653469 -166.142357 29.197384 -106.015479 -0.737537 0.177871 0.332029 7.125000 0.000000 0.000000 
6.209160 20.591439 0.887034 175.537036 -87.697851 -139.504532 -87.517671 -53.333826 -16.218493 19.810618 5.448960 53.152511 7.923975 -3.981930 -65.667024 0.169600 2.653200 7.314700 86.878241 62.412521 -19.867852 -21.553282 -6.138454 55.291338 -9.591562 -4.033842 -62.424883 -0.315800 3.612200 -9.988200 -97.543321 -14.255295 -9.485185 27.609473 -3.970250 16.873117 80.266298 -16.875064 9.791381 4.362600 -4.961500 3.443200 -35.032228 -75.427425 -7.678529 146.560009 -45.120006 -81.461870 1.514807 6.153924 11.386794 -7.125000 0.000000 0.000000 77.665100 25.965471 -0.626368 -166.353354 29.251092 -106.100633 -0.704121 0.137593 0.290663 7.125000 0.000000 0.000000 
6.206525 20.591590 0.890045 175.393444 -88.118288 -141.034314 -87.833106 -53.189857 -15.345934 19.786152 5.556883 53.207796 7.948266 -3.861628 -65.738127 0.157300 2.555600 7.043800 86.967386 62.438622 -19.312113 -21.408463 -6.407024 55.491715 -9.601625 -4.079071 -61.977418 -0.507400 4.566000 -12.674700 -99.119251 -8.646925 -2.182637 28.659335 -2.684322 14.084272 79.340810 -14.821144 7.059162 4.196400 -4.895300 3.361600 -34.666939 -75.965825 -8.173590 146.506816 -44.924471 -81.415505 1.601615 6.086975 11.315645 -7.125000 0.000000 0.000000 77.678185 26.931302 -0.502311 -166.420521 29.367377 -106.091638 -0.703620 0.120743 0.358176 7.125000 0.000000 0.000000 
6.207203 20.589933 0.892681 174.461011 -87.744753 -140.056034 -87.987623 -53.161668 -15.241633 19.822146 5.553580 53.088652 8.035676 -3.693315 -65.759815 0.118800 2.222400 6.120700 86.661481 62.592611 -19.538419 -21.378830 -6.431260 55.628645 -9.573062 -4.059396 -61.883814 -0.555600 4.774600 -13.266700 -99.377236 -8.712661 -2.320561 29.010110 -2.676362 14.252855 78.062432 -14.036815 6.204799 4.081000 -4.862800 3.320100 -34.577681 -76.126866 -8.524140 146.511802 -44.842601 -81.432333 1.715791 6.023649 11.346751 -7.125000 0.000000 0.000000 77.735023 27.035812 -0.446518 -166.310569 29.388038 -106.061051 -0.724735 0.124570 0.406334 7.125000 0.000000 0.000000 
6.208633 20.587976 0.894187 175.081290 -87.457992 -139.135855 -87.948077 -53.151038 -15.767868 19.930955 5.391728 52.848230 8.118126 -3.615096 -65.747494 0.099700 2.036100 5.605400 86.125875 62.790761 -20.400914 -21.412815 -6.303586 55.697077 -9.603135 -4.106279 -61.843175 -0.553700 4.766600 -13.244000 -98.243712 -14.160094 -9.270287 28.442565 -4.083883 17.381762 77.305512 -14.143975 6.583093 4.058600 -4.887400 3.277300 -34.637191 -75.730590 -8.689490 146.584340 -44.840825 -81.576923 1.777044 6.014532 11.357261 -7.125000 0.000000 0.000000 77.805831 26.181956 -0.564070 -166.078530 29.211229 -106.048636 -0.721086 0.150477 0.468908 7.125000 0.000000 0.000000 
6.204266 20.586922 0.895994 176.813307 -87.805194 -139.828655 -87.838182 -53.239456 -16.151050 20.013057 5.265341 52.695055 8.163958 -3.588737 -65.760260 0.106800 2.107300 5.802200 85.585427 63.125764 -21.208337 -21.406742 -6.291954 55.767270 -9.639444 -4.212584 -61.905399 -0.500600 4.535900 -12.589500 -96.877308 -17.641050 -13.781761 27.852714 -5.160462 19.864228 76.696691 -13.530567 5.779839 4.032400 -4.914900 3.202700 -34.707639 -75.242224 -8.822886 146.640079 -44.759139 -81.680509 1.816454 5.966034 11.210994 -7.125000 0.000000 0.000000 77.842177 25.478849 -0.782886 -165.901599 28.954687 -106.061529 -0.699683 0.191169 0.417027 7.125000 0.000000 0.000000 
6.200050 20.585190 0.898554 175.923727 -87.712632 -139.289209 -87.943096 -53.284220 -15.980221 19.987432 5.314972 52.647651 8.179763 -3.589647 -65.793376 0.117100 2.206400 6.076400 84.983119 63.650511 -21.659620 -21.370257 -6.436765 55.929078 -9.604855 -4.380967 -62.210676 -0.370400 3.909300 -10.821700 -97.922054 -15.308099 -10.564781 28.422401 -4.661412 18.908527 76.794329 -12.467172 4.068230 4.044600 -4.958100 3.151700 -34.232724 -75.553902 -9.273030 146.583067 -44.654568 -81.640393 1.804207 5.936845 11.020313 -7.125000 0.000000 0.000000 77.748334 25.782881 -0.919311 -165.958858 28.883957 -106.097643 -0.684827 0.191622 0.254198 7.125000 0.000000 0.000000 
6.199297 20.584889 0.900812 173.633156 -87.249728 -138.204609 -88.250027 -53.177569 -15.389901 19.926320 5.449138 52.641329 8.200868 -3.543261 -65.832130 0.128800 2.313500 6.373000 84.597180 63.953915 -21.574841 -21.274526 -6.662202 56.187703 -9.599862 -4.518217 -61.965463 -0.489400 4.485600 -12.447100 -99.366978 -10.427263 -4.484280 29.370679 -3.305332 16.273376 76.727841 -11.140515 2.023465 4.049800 -4.998000 3.104700 -33.421263 -76.411084 -10.019827 146.453483 -44.550287 -81.513440 1.757313 5.961137 11.023091 -7.125000 0.000000 0.000000 77.715587 26.657554 -0.874372 -166.103955 29.027253 -106.118636 -0.700877 0.156386 0.239059 7.125000 0.000000 0.000000 
6.197641 20.584286 0.901867 173.024852 -87.167362 -138.016919 -88.322995 -53.158881 -15.206627 19.870320 5.482131 52.670819 8.144790 -3.731036 -65.894370 0.144100 2.446200 6.740500 84.459369 64.137481 -21.567227 -21.261633 -6.735961 56.250198 -9.571095 -4.574547 -62.174283 -0.414700 4.133500 -11.452500 -99.945140 -8.627229 -2.318160 29.969415 -2.859122 15.560804 75.127325 -9.715742 0.012039 3.937900 -4.998800 3.030500 -32.942664 -76.862582 -10.651632 146.408484 -44.380764 -81.526965 1.795088 5.959314 11.055871 -7.125000 0.000000 0.000000 77.840255 27.038569 -0.859322 -166.070429 29.065947 -106.132713 -0.734940 0.157830 0.393175 7.125000 0.000000 0.000000 
